<?xml version="1.0" encoding="utf-8"?>
<!-- Generator: Adobe Illustrator 28.0.0, SVG Export Plug-In . SVG Version: 6.00 Build 0)  -->
<svg version="1.1" id="Layer_1" xmlns="http://www.w3.org/2000/svg" xmlns:xlink="http://www.w3.org/1999/xlink" x="0px" y="0px"
	 viewBox="0 0 64 80" style="enable-background:new 0 0 64 80;" xml:space="preserve">
<style type="text/css">
	.st0{fill-rule:evenodd;clip-rule:evenodd;}
</style>
<path d="M43,11c0-1.1-0.9-2-2-2s-2,0.9-2,2v0.8c-3.4,0.2-6,3.2-6,6.6c0,3.5,2.7,6.6,6.3,6.6h3.3c1.2,0,2.3,1,2.3,2.6
	s-1.2,2.6-2.3,2.6H35c-1.1,0-2,0.9-2,2c0,1.1,0.9,2,2,2h4V35c0,1.1,0.9,2,2,2s2-0.9,2-2v-0.8c3.4-0.2,6-3.2,6-6.6
	c0-3.5-2.7-6.6-6.3-6.6h-3.3c-1.2,0-2.3-1-2.3-2.6s1.2-2.6,2.3-2.6H47c1.1,0,2-0.9,2-2c0-1.1-0.9-2-2-2h-4V11z"/>
<path class="st0" d="M20,23c0-11.6,9.4-21,21-21s21,9.4,21,21s-9.4,21-21,21S20,34.6,20,23z M41,6c-9.4,0-17,7.6-17,17s7.6,17,17,17
	s17-7.6,17-17S50.4,6,41,6z"/>
<path class="st0" d="M2,39c0-1.1,0.9-2,2-2h15.3c0.4,0,0.9,0.1,1.2,0.4l8.1,6.2c2.3,1.7,2.9,4.7,1.8,7.2h12.9c3.1,0,5.6,2.5,5.6,5.6
	c0,3.1-2.5,5.6-5.6,5.6H12.3c-0.4,0-0.8-0.1-1.2-0.4l-8.3-6.1c-0.5-0.4-0.8-1-0.8-1.6V39z M45,56.4c0-0.9-0.7-1.6-1.6-1.6H26.5
	c-0.4,0-0.8-0.1-1.2-0.4l-4.2-3.1c-0.9-0.7-1.1-1.9-0.4-2.8c0.7-0.9,1.9-1.1,2.8-0.4l2.6,1.9l0.4-0.4c0.7-0.9,0.6-2.2-0.3-2.8
	L18.6,41H6v11.8l7,5.2h30.4C44.3,58,45,57.3,45,56.4z"/>
</svg>
