<?xml version="1.0" encoding="utf-8"?>
<!-- Generator: Adobe Illustrator 28.0.0, SVG Export Plug-In . SVG Version: 6.00 Build 0)  -->
<svg version="1.1" id="Layer_1" xmlns="http://www.w3.org/2000/svg" xmlns:xlink="http://www.w3.org/1999/xlink" x="0px" y="0px"
	 viewBox="0 0 64 80" style="enable-background:new 0 0 64 80;" xml:space="preserve">
<style type="text/css">
	.st0{fill-rule:evenodd;clip-rule:evenodd;}
</style>
<path d="M48,19c0,1.7-1.3,3-3,3s-3-1.3-3-3s1.3-3,3-3S48,17.3,48,19z"/>
<path class="st0" d="M40.2,4c0-1.1,0.9-2,2-2h5.6c1.1,0,2,0.9,2,2v3.4L52.2,5c0.8-0.8,2-0.8,2.8,0l4,4c0.4,0.4,0.6,0.9,0.6,1.4
	c0,0.5-0.2,1-0.6,1.4l-2.4,2.4H60c1.1,0,2,0.9,2,2v5.6c0,1.1-0.9,2-2,2h-3.4l2.4,2.4c0.4,0.4,0.6,0.9,0.6,1.4c0,0.5-0.2,1-0.6,1.4
	l-4,4c-0.8,0.8-2,0.8-2.8,0l-2.4-2.4V34c0,1.1-0.9,2-2,2h-5.6c-1.1,0-2-0.9-2-2v-3.4L37.8,33c-0.4,0.4-0.9,0.6-1.4,0.6
	c-0.5,0-1-0.2-1.4-0.6l-4-4c-0.4-0.4-0.6-0.9-0.6-1.4s0.2-1,0.6-1.4l2.4-2.4H30c-1.1,0-2-0.9-2-2v-5.6c0-1.1,0.9-2,2-2h3.4L31,11.8
	c-0.8-0.8-0.8-2,0-2.8l4-4c0.4-0.4,0.9-0.6,1.4-0.6c0.5,0,1,0.2,1.4,0.6l2.4,2.4V4z M44.2,6v3.1c0,0.9-0.6,1.7-1.5,1.9
	c-0.6,0.2-1.2,0.4-1.8,0.7c-0.8,0.4-1.8,0.3-2.4-0.3l-2.2-2.2l-1.1,1.1l2.2,2.2c0.6,0.6,0.8,1.6,0.3,2.4c-0.3,0.6-0.6,1.2-0.7,1.8
	c-0.2,0.9-1,1.5-1.9,1.5H32v1.6h3.1c0.9,0,1.7,0.6,1.9,1.5c0.2,0.6,0.4,1.2,0.7,1.8c0.4,0.8,0.3,1.8-0.3,2.4l-2.2,2.2l1.1,1.1
	l2.2-2.2c0.6-0.6,1.6-0.8,2.4-0.3c0.6,0.3,1.2,0.6,1.8,0.7c0.9,0.2,1.5,1,1.5,1.9V32h1.6v-3.1c0-0.9,0.6-1.7,1.5-1.9
	c0.6-0.2,1.2-0.4,1.8-0.7c0.8-0.4,1.8-0.3,2.4,0.3l2.2,2.2l1.1-1.1l-2.2-2.2c-0.6-0.6-0.8-1.6-0.3-2.4c0.3-0.6,0.6-1.2,0.7-1.8
	c0.2-0.9,1-1.5,1.9-1.5H58v-1.6h-3.1c-0.9,0-1.7-0.6-1.9-1.5c-0.2-0.6-0.4-1.2-0.7-1.8c-0.4-0.8-0.3-1.8,0.3-2.4l2.2-2.2l-1.1-1.1
	l-2.2,2.2c-0.6,0.6-1.6,0.8-2.4,0.3c-0.6-0.3-1.2-0.6-1.8-0.7c-0.9-0.2-1.5-1-1.5-1.9V6H44.2z"/>
<path class="st0" d="M4,30c-1.1,0-2,0.9-2,2v19.8c0,0.6,0.3,1.2,0.8,1.6l10.8,8.2c0.3,0.3,0.8,0.4,1.2,0.4h40.4c3.7,0,6.8-3,6.8-6.8
	c0-3.7-3-6.8-6.8-6.8H37.5l0.3-0.4c2.1-2.6,1.6-6.4-1-8.5l-11.7-9.1c-0.4-0.3-0.8-0.4-1.2-0.4H4z M55.2,52.4c1.5,0,2.8,1.2,2.8,2.8
	c0,1.5-1.2,2.8-2.8,2.8H15.5L6,50.8V34h17.2l11.1,8.7c0.9,0.7,1,1.9,0.3,2.8L33,47.7l-3.9-2.9c-0.9-0.7-2.1-0.5-2.8,0.4
	c-0.7,0.9-0.5,2.1,0.4,2.8l5.4,4.1c0.3,0.3,0.8,0.4,1.2,0.4H55.2z"/>
</svg>
