<?xml version="1.0" encoding="utf-8"?>
<!-- Generator: Adobe Illustrator 28.0.0, SVG Export Plug-In . SVG Version: 6.00 Build 0)  -->
<svg version="1.1" id="Layer_1" xmlns="http://www.w3.org/2000/svg" xmlns:xlink="http://www.w3.org/1999/xlink" x="0px" y="0px"
	 viewBox="0 0 64 80" style="enable-background:new 0 0 64 80;" xml:space="preserve">
<style type="text/css">
	.st0{fill-rule:evenodd;clip-rule:evenodd;}
</style>
<path d="M50,8c1.1,0,2,0.9,2,2v5h5c1.1,0,2,0.9,2,2s-0.9,2-2,2h-5v5c0,1.1-0.9,2-2,2s-2-0.9-2-2v-5h-5c-1.1,0-2-0.9-2-2s0.9-2,2-2h5
	v-5C48,8.9,48.9,8,50,8z"/>
<path class="st0" d="M2,26c0-1.1,0.9-2,2-2h19.9c0.4,0,0.9,0.1,1.2,0.4l11.7,9.1c2.6,2.1,3.1,5.8,1,8.5l-0.3,0.4h17.7
	c3.7,0,6.8,3,6.8,6.8c0,3.7-3,6.8-6.8,6.8H14.8c-0.4,0-0.9-0.1-1.2-0.4L2.8,47.4C2.3,47,2,46.4,2,45.8V26z M58,49.2
	c0-1.5-1.2-2.8-2.8-2.8H33.4c-0.4,0-0.9-0.1-1.2-0.4l-5.4-4.1c-0.9-0.7-1.1-1.9-0.4-2.8c0.7-0.9,1.9-1.1,2.8-0.4l3.9,2.9l1.7-2.1
	c0.7-0.9,0.5-2.1-0.3-2.8L23.2,28H6v16.8l9.5,7.2h39.7C56.8,52,58,50.8,58,49.2z"/>
<path d="M57,33c1.1,0,2-0.9,2-2c0-1.1-0.9-2-2-2H43c-1.1,0-2,0.9-2,2c0,1.1,0.9,2,2,2H57z"/>
</svg>
